# xmcd
#
# Track frame offsets:
#	150
#	15317
#	28297
#	42767
#	55377
#	68363
#	80385
#	94383
#	107576
#	121102
#	134629
#	147644
#	160044
#	173668
#	187163
#	201031
#	214674
#	227413
#	240358
#	252858
#	264968
#	277442
#	289591
#	303408
#	316418
#	328372
#	340802
#
# Disc length: 4721 seconds
# Revision: 0
# Processed by: cddbd v1.5.2PL0 Copyright (c) Steve Scherf et al.
# Submitted via: dBpowerAMP V12.0
#
DISCID=88126f1b
DTITLE=Arkansas Woodchopper - I'm A Texas Cowboy
DYEAR=1900
DGENRE=Country
TTITLE0=The Cowboys Dream
TTITLE1=The Dying Cowboy
TTITLE2=The Prisoner At The Bar
TTITLE3=Zeb Turney's Gal
TTITLE4=In The Jailhouse Now
TTITLE5=Write Me A Song About It Father
TTITLE6=If Brother Jack Were Here
TTITLE7=Old And Only In The way
TTITLE8=Take Me Back To Colarado
TTITLE9=A Hard Luck Guy
TTITLE10=The Habit
TTITLE11=Sweet Evelina
TTITLE12=The Dying Ranger
TTITLE13=Little Green Valley
TTITLE14=When Its Harvest Time My Sweet Angeline
TTITLE15=I'm A Texas Cowboy
TTITLE16=Sweet Sunny South
TTITLE17=If I Could Only Blot Out The Past
TTITLE18=Old Pal
TTITLE19=Daddy And Home
TTITLE20=Mrs Murphy' Chowder
TTITLE21=Just Plain Folks
TTITLE22=Cowboy Jack
TTITLE23=The Last Great Roundup
TTITLE24=Frankie And Albert
TTITLE25=What Is A Home Without Love
TTITLE26=The Bronc That Wouldn't Bust
EXTD=
EXTT0=
EXTT1=
EXTT2=
EXTT3=
EXTT4=
EXTT5=
EXTT6=
EXTT7=
EXTT8=
EXTT9=
EXTT10=
EXTT11=
EXTT12=
EXTT13=
EXTT14=
EXTT15=
EXTT16=
EXTT17=
EXTT18=
EXTT19=
EXTT20=
EXTT21=
EXTT22=
EXTT23=
EXTT24=
EXTT25=
EXTT26=
PLAYORDER=
